<svg xmlns="http://www.w3.org/2000/svg" width="16" height="16" viewBox="0 0 16 16">
    <g data-name="favorite person icon">
        <path data-name="Path 15917" d="m10.2 3.956 1.883 4.311a.268.268 0 0 0 .221.167l4.5.542a.783.783 0 0 1 .652.555.835.835 0 0 1-.215.85L13.9 13.587a.287.287 0 0 0-.085.272l.9 4.646a.828.828 0 0 1-.3.82.745.745 0 0 1-.839.047l-3.945-2.33a.262.262 0 0 0-.273 0l-3.947 2.33a.745.745 0 0 1-.838-.048.828.828 0 0 1-.3-.819l.9-4.646a.287.287 0 0 0-.085-.272l-3.34-3.206a.835.835 0 0 1-.216-.85.783.783 0 0 1 .652-.555l4.5-.542a.268.268 0 0 0 .221-.167l1.884-4.311a.76.76 0 0 1 1.411 0z" transform="translate(-1.494 -3.479)" style="fill:#8498a9;fill-rule:evenodd"/>
    </g>
</svg>
